<?xml version="1.0" standalone="no"?>
<!DOCTYPE svg PUBLIC "-//W3C//DTD SVG 20010904//EN"
 "http://www.w3.org/TR/2001/REC-SVG-20010904/DTD/svg10.dtd">
<svg version="1.0" xmlns="http://www.w3.org/2000/svg"
 width="512.000000pt" height="512.000000pt" viewBox="0 0 512.000000 512.000000"
 preserveAspectRatio="xMidYMid meet">
<metadata>
Created by potrace 1.11, written by Peter Selinger 2001-2013
</metadata>
<g transform="translate(0.000000,512.000000) scale(0.100000,-0.100000)"
fill="#000000" stroke="none">
<path d="M709 3763 c-1 -5 -1 -16 0 -25 1 -10 -2 -26 -8 -36 -14 -27 -3 -34
25 -15 22 14 27 14 66 -6 24 -11 39 -21 35 -21 -15 0 15 -24 136 -111 195
-139 211 -149 224 -144 24 9 13 -10 -18 -31 l-30 -22 33 -23 c18 -13 35 -27
36 -31 2 -4 8 -8 13 -8 6 0 23 -10 39 -22 l29 -21 -27 -26 -27 -26 27 -3 c15
-2 43 1 62 6 29 8 37 7 52 -9 9 -10 21 -19 26 -19 5 0 44 -26 88 -57 43 -32
115 -83 159 -113 78 -54 80 -55 62 -75 -40 -45 -25 -53 60 -30 21 5 41 -4 105
-47 98 -67 166 -132 158 -153 -4 -9 -1 -15 8 -15 8 0 23 -6 34 -14 17 -13 17
-16 4 -30 -8 -8 -26 -17 -40 -20 -14 -3 -74 -17 -135 -32 -60 -14 -137 -32
-170 -40 -88 -21 -95 -23 -113 -28 -9 -3 -28 -8 -42 -10 -14 -3 -45 -10 -70
-17 -25 -6 -53 -12 -63 -14 -9 -2 -26 6 -38 18 -25 27 -169 255 -169 268 0 5
-3 9 -8 9 -4 0 -12 9 -17 20 -30 60 -111 181 -125 185 -15 5 -99 -14 -151 -34
l-27 -10 -2 -123 c-5 -384 -8 -443 -17 -441 -10 2 -68 29 -388 183 -149 72
-200 86 -268 73 -31 -6 -26 -12 48 -63 28 -19 55 -38 60 -43 6 -5 60 -43 121
-85 121 -83 144 -100 210 -149 24 -18 49 -33 54 -33 12 0 13 -17 1 -22 -5 -1
-27 -18 -50 -37 -60 -49 -53 -96 15 -106 16 -2 66 -11 111 -19 45 -8 108 -18
140 -21 60 -7 76 -16 184 -107 154 -129 148 -127 227 -97 27 11 27 11 -3 89
-14 35 -25 67 -25 71 0 5 42 5 93 2 126 -9 363 -8 472 1 94 7 311 47 388 70
25 8 48 12 50 10 13 -13 269 -24 357 -15 53 6 59 4 152 -49 l98 -54 -28 -29
-27 -30 45 6 c59 9 102 17 110 22 7 4 18 -7 83 -87 l38 -46 -28 -26 c-35 -32
-26 -40 30 -28 44 9 46 8 75 -27 16 -20 44 -52 60 -71 31 -35 31 -35 11 -56
-21 -23 -25 -45 -6 -39 6 2 30 6 52 9 22 3 54 8 70 11 28 6 35 1 85 -56 87
-99 93 -108 87 -135 -6 -34 9 -40 28 -10 9 13 45 39 80 57 36 18 65 36 65 39
0 6 -22 65 -68 185 -17 44 -32 86 -34 94 -3 12 83 39 180 55 50 9 88 32 119
73 24 31 28 45 27 93 -2 92 -49 140 -137 142 -33 1 -182 -8 -215 -13 -25 -4
-92 2 -90 9 1 7 -2 17 -33 96 -10 27 -19 54 -19 60 0 12 88 68 134 86 27 10
551 134 614 145 17 3 42 9 56 15 15 5 26 8 26 6 0 -7 319 103 373 129 64 30
141 92 184 147 24 32 22 77 -4 113 -16 21 -129 85 -150 85 -5 0 -31 16 -58 36
-94 67 -139 78 -320 78 -147 0 -268 -16 -465 -59 -8 -2 -49 -11 -90 -20 -99
-22 -95 -21 -171 -39 -37 -8 -78 -17 -90 -20 -13 -2 -71 -16 -129 -30 -58 -13
-116 -27 -130 -30 -14 -3 -63 -15 -110 -26 -137 -34 -144 -34 -155 -9 -16 36
-59 61 -106 63 -38 2 -145 -10 -269 -30 -82 -13 -104 -7 -235 61 -72 37 -191
99 -265 137 -74 39 -171 90 -215 113 -80 43 -202 106 -480 250 -165 85 -255
134 -270 145 -5 4 -37 22 -70 40 -33 18 -74 41 -92 51 -30 17 -132 42 -220 54
-21 3 -48 8 -60 10 -13 3 -24 2 -24 -2z"/>
</g>
</svg>
